<?xml version="1.0" standalone="no"?>
<!DOCTYPE svg PUBLIC "-//W3C//DTD SVG 20010904//EN"
 "http://www.w3.org/TR/2001/REC-SVG-20010904/DTD/svg10.dtd">
<svg version="1.0" xmlns="http://www.w3.org/2000/svg"
 width="760.000000pt" height="760.000000pt" viewBox="0 0 760.000000 760.000000"
 preserveAspectRatio="xMidYMid meet">
<metadata>
Created by potrace 1.11, written by Peter Selinger 2001-2013
</metadata>
<g transform="translate(0.000000,760.000000) scale(0.100000,-0.100000)"
fill="#000000" stroke="none">
<path d="M6107 6450 c-39 -31 -62 -77 -229 -465 -79 -185 -98 -236 -175 -460
-122 -359 -262 -833 -333 -1130 -12 -49 -30 -118 -40 -152 -16 -51 -109 -453
-124 -533 -2 -14 -9 -45 -15 -70 -5 -25 -12 -56 -15 -70 -2 -14 -11 -56 -20
-95 -8 -38 -27 -131 -41 -205 -31 -164 -27 -146 -60 -305 -26 -122 -32 -157
-34 -179 -1 -14 -15 2 -18 22 -1 9 -5 46 -8 82 -3 36 -8 79 -10 95 -3 17 -7
62 -10 100 -4 39 -8 90 -10 115 -3 25 -7 72 -10 105 -3 33 -7 74 -9 90 -3 17
-7 75 -11 130 -4 55 -8 102 -10 105 -2 3 -6 46 -9 95 -4 50 -9 119 -12 155
-22 314 -24 343 -29 390 -2 25 -7 99 -10 165 -4 66 -8 138 -10 160 -2 22 -6
87 -10 145 -4 58 -8 121 -10 140 -2 19 -6 78 -10 130 -3 52 -8 113 -10 135 -3
22 -7 74 -10 115 -11 184 -21 286 -30 300 -5 8 -133 28 -207 32 -72 3 -81 -10
-73 -106 4 -45 8 -97 10 -116 4 -52 -57 -280 -75 -280 -3 0 -11 51 -18 113 -6
61 -14 123 -17 137 -3 14 -12 76 -20 138 -8 62 -17 117 -19 121 -3 4 -20 8
-40 9 -44 3 -51 -15 -37 -95 5 -32 12 -87 16 -123 3 -36 7 -87 10 -115 3 -27
7 -77 10 -110 3 -33 7 -78 10 -100 2 -22 7 -78 10 -125 3 -47 8 -116 11 -155
3 -38 7 -101 9 -140 13 -251 21 -373 30 -470 3 -27 7 -81 10 -120 10 -127 15
-199 20 -250 2 -27 6 -86 10 -130 3 -44 7 -100 10 -125 3 -25 7 -79 10 -120 3
-41 7 -93 10 -115 2 -22 7 -76 10 -120 4 -44 8 -91 10 -105 2 -14 7 -54 10
-90 6 -70 12 -119 20 -190 3 -25 7 -65 10 -90 13 -109 16 -137 20 -165 2 -16
7 -52 10 -80 3 -27 10 -72 16 -100 5 -27 11 -63 13 -80 3 -26 18 -108 30 -170
53 -264 110 -343 225 -315 43 11 52 9 155 -29 121 -45 220 -67 259 -57 41 10
81 58 110 132 23 59 87 291 101 365 2 13 18 94 36 179 17 85 33 166 36 180 3
14 14 63 25 110 19 81 66 312 76 375 9 54 73 368 99 480 146 637 309 1216 477
1695 68 194 132 371 147 405 65 149 132 297 189 416 64 135 72 148 104 158 38
13 56 42 51 85 -4 39 -21 53 -69 60 -22 4 -74 16 -115 27 -96 26 -168 33 -185
19 -19 -16 -69 -4 -104 26 -43 35 -81 40 -114 14z"/>
<path d="M3771 5827 c-24 -5 -49 -13 -55 -18 -6 -5 -23 -19 -39 -30 -88 -66
-250 -409 -430 -914 -131 -363 -360 -1072 -483 -1490 -13 -44 -35 -120 -50
-170 -14 -49 -35 -121 -45 -160 -50 -181 -61 -219 -98 -355 -29 -103 -49 -156
-70 -185 -84 -111 -86 -116 -88 -183 -1 -35 4 -77 11 -94 11 -25 10 -40 -5
-96 -25 -87 -61 -285 -64 -342 -2 -64 22 -127 66 -171 58 -58 98 -54 176 18
39 37 43 45 98 213 87 269 86 267 176 355 44 44 113 121 153 170 96 118 287
310 528 531 l56 51 -3 -61 c-2 -33 -6 -92 -9 -131 -3 -38 -8 -106 -11 -150 -3
-44 -7 -100 -10 -125 -2 -25 -7 -72 -10 -105 -3 -33 -8 -76 -10 -95 -3 -19 -7
-62 -10 -95 -3 -33 -7 -76 -10 -95 -2 -19 -7 -68 -10 -108 -4 -41 -8 -81 -10
-91 -5 -28 -17 -127 -20 -168 -4 -59 22 -129 63 -172 44 -46 83 -59 126 -42
17 7 44 14 59 16 15 1 37 11 48 21 29 26 66 102 80 161 6 26 13 57 16 68 3 11
6 27 7 35 2 8 8 40 14 70 19 88 22 102 28 155 3 28 9 73 14 100 13 71 18 101
25 178 3 37 8 76 10 85 2 10 6 78 9 152 7 139 15 261 21 290 8 42 18 234 20
410 4 311 17 852 20 890 2 19 6 109 9 200 15 402 17 457 21 490 13 118 21 717
11 791 -20 150 -156 231 -325 196z m-127 -1189 c-16 -600 -27 -1041 -27 -1110
l-1 -57 -75 -36 c-103 -51 -196 -112 -283 -187 -179 -155 -187 -161 -181 -136
2 13 9 32 13 43 5 11 25 74 45 140 54 180 266 807 334 990 130 347 168 445
174 445 2 0 3 -42 1 -92z"/>
<path d="M2793 5695 c-29 -8 -144 -53 -255 -101 -112 -47 -286 -120 -388 -161
-205 -84 -505 -211 -590 -250 -226 -105 -481 -235 -499 -254 -24 -26 -111
-187 -111 -206 0 -19 99 -184 123 -204 37 -31 134 -39 308 -25 l61 5 -7 -167
c-13 -320 -16 -357 -40 -503 -45 -271 -165 -431 -360 -480 -144 -36 -178 -211
-74 -385 49 -82 74 -94 186 -91 62 1 96 -2 104 -10 10 -10 10 -31 0 -100 -7
-48 -14 -99 -16 -113 -2 -14 -7 -45 -10 -70 -3 -25 -10 -72 -15 -105 -5 -33
-12 -82 -15 -110 -8 -73 -25 -214 -30 -255 -7 -61 -19 -341 -19 -450 0 -130
20 -195 71 -240 42 -37 72 -50 119 -50 88 0 125 53 144 204 6 48 19 124 30
169 11 45 21 96 24 112 12 82 16 115 21 175 3 36 7 81 10 100 2 19 7 69 10
110 3 41 8 93 10 115 7 65 15 146 20 210 25 276 60 410 130 494 48 56 155 108
286 137 10 2 29 6 42 9 12 3 67 13 122 22 171 28 205 55 252 200 34 108 24
183 -34 249 -73 82 -228 98 -443 44 -187 -47 -183 -47 -176 -13 29 147 37 243
41 508 5 299 15 381 49 424 11 14 82 62 147 99 170 97 240 134 339 181 144 67
113 54 385 161 344 136 353 141 383 223 22 60 23 198 2 273 -32 112 -175 162
-337 119z"/>
<path d="M1801 2503 c-1 -6 -4 -20 -7 -30 -5 -17 -5 -17 6 0 6 10 9 23 6 30
-3 9 -5 9 -5 0z"/>
</g>
</svg>
